<svg width="30" height="30" viewBox="0 0 30 30" fill="none" xmlns="http://www.w3.org/2000/svg">
<path d="M11.2501 20.2125L6.91256 15.875C6.67884 15.6413 6.36184 15.5099 6.03131 15.5099C5.70078 15.5099 5.38378 15.6413 5.15006 15.875C4.91634 16.1087 4.78503 16.4257 4.78503 16.7562C4.78503 16.9199 4.81727 17.0819 4.8799 17.2332C4.94253 17.3844 5.03433 17.5217 5.15006 17.6375L10.3751 22.8625C10.8626 23.35 11.6501 23.35 12.1376 22.8625L25.3626 9.63747C25.5963 9.40375 25.7276 9.08676 25.7276 8.75622C25.7276 8.42569 25.5963 8.1087 25.3626 7.87497C25.1288 7.64125 24.8118 7.50995 24.4813 7.50995C24.1508 7.50995 23.8338 7.64125 23.6001 7.87497L11.2501 20.2125Z" fill="white"/>
</svg>
